<svg width="18" height="18" viewBox="0 0 18 18" fill="none" xmlns="http://www.w3.org/2000/svg">
<path d="M2.76441 13.7372L7.50408 8.99757L2.76928 4.26278C2.35621 3.8497 2.35625 3.17992 2.76928 2.76681C3.18238 2.35371 3.85215 2.35371 4.26525 2.76681L9.00004 7.5016L13.7348 2.76681C14.1479 2.35371 14.8177 2.35371 15.2308 2.76681C15.6439 3.17991 15.6439 3.84968 15.2308 4.26278L10.496 8.99757L15.2357 13.7372C15.6488 14.1503 15.6488 14.8201 15.2357 15.2332C14.8226 15.6462 14.1528 15.6463 13.7397 15.2332L9.00004 10.4935L4.26038 15.2332C3.84728 15.6463 3.17751 15.6463 2.76441 15.2332C2.35131 14.8201 2.35131 14.1503 2.76441 13.7372Z" fill="#FF3C3C" fill-opacity="0.2"/>
</svg>
