<svg width="39" height="39" viewBox="0 0 39 39" fill="none" xmlns="http://www.w3.org/2000/svg">
<g clip-path="url(#clip0_32_106)">
<path d="M34.1917 5.1644H4.98618C4.19936 5.1644 3.56152 5.80224 3.56152 6.58906V37.5754C3.56152 38.3622 4.19936 39 4.98618 39H34.1917C34.9785 39 35.6163 38.3622 35.6163 37.5754V6.58906C35.6163 5.80224 34.9785 5.1644 34.1917 5.1644Z" fill="#FF7400"/>
<path d="M32.4109 8.72604H6.76709V35.4384H32.4109V8.72604Z" fill="white"/>
<path fill-rule="evenodd" clip-rule="evenodd" d="M19.5889 0C21.4299 0 22.9199 1.3516 22.9711 3.0274H22.9724V7.47945H16.2053V3.0274H16.2067C16.2579 1.3516 17.7479 0 19.5889 0ZM19.5889 1.42466C18.3993 1.42466 17.63 2.28567 17.63 3.11644C17.63 3.9472 18.3993 4.80822 19.5889 4.80822C20.7785 4.80822 21.5478 3.9472 21.5478 3.11644C21.5478 2.28567 20.7785 1.42466 19.5889 1.42466Z" fill="#CCCCCC"/>
<path d="M28.6712 8.72601V10.6849H10.5068V8.72601H28.6712Z" fill="#9A4600"/>
<path d="M10.5068 8.36987C10.5068 7.18964 11.4636 6.23288 12.6438 6.23288H26.5342C27.7144 6.23288 28.6712 7.18964 28.6712 8.36987V8.72603H10.5068V8.36987Z" fill="#CCCCCC"/>
<path d="M23.1506 13.1781V18.5205H28.493V25.6438H23.1506V30.9863H16.0273V25.6438H10.6848V18.5205H16.0273V13.1781H23.1506Z" fill="#FF7400"/>
</g>
<defs>
<clipPath id="clip0_32_106">
<rect width="32.0548" height="39" fill="white" transform="translate(3.56152)"/>
</clipPath>
</defs>
</svg>
