<svg width="22" height="22" viewBox="0 0 22 22" fill="none" xmlns="http://www.w3.org/2000/svg">
<path d="M9.6757 20.68V12.3157H1.32C0.59102 12.3157 5.85045e-05 11.7247 0 10.9957C3.1602e-08 10.2667 0.590984 9.6757 1.32 9.6757H9.6757V1.32C9.6757 0.590984 10.2667 0 10.9957 0C11.7247 0 12.3157 0.590984 12.3157 1.32V9.6757H20.68C21.409 9.6757 22 10.2667 22 10.9957C21.9999 11.7247 21.409 12.3157 20.68 12.3157H12.3157V20.68C12.3157 21.409 11.7247 22 10.9957 22C10.2667 22 9.6757 21.409 9.6757 20.68Z" fill="#FF7400"/>
</svg>
