<svg width="24" height="24" viewBox="0 0 24 24" fill="none" xmlns="http://www.w3.org/2000/svg">
<path d="M17.9095 7.09126H6.09064V20C6.09064 20.2409 6.18671 20.4719 6.35698 20.6424C6.52747 20.8129 6.75934 20.9087 7.00044 20.9087H16.9997C17.2408 20.9087 17.4727 20.8129 17.6432 20.6424C17.8135 20.4719 17.9095 20.2409 17.9095 20V7.09126ZM8.90954 17V11C8.90954 10.3975 9.39795 9.90909 10.0004 9.90909C10.6028 9.90928 11.0914 10.3976 11.0914 11V17C11.0914 17.6024 10.6028 18.0907 10.0004 18.0909C9.39795 18.0909 8.90954 17.6025 8.90954 17ZM12.9088 17V11C12.9088 10.3976 13.3974 9.90928 13.9997 9.90909C14.6022 9.90909 15.0906 10.3975 15.0906 11V17C15.0906 17.6025 14.6022 18.0909 13.9997 18.0909C13.3974 18.0907 12.9088 17.6024 12.9088 17ZM14.9095 3.99964C14.9094 3.75875 14.8135 3.52763 14.6432 3.35724C14.4727 3.18675 14.2408 3.09091 13.9997 3.09091H10.0004C9.75934 3.09091 9.52747 3.18675 9.35698 3.35724C9.18669 3.52763 9.09074 3.75875 9.09064 3.99964V4.90944H14.9095V3.99964ZM17.0914 4.90944H21.0001C21.6026 4.90944 22.091 5.39786 22.091 6.00035C22.0908 6.60268 21.6025 7.09126 21.0001 7.09126H20.0914V20C20.0914 20.8198 19.7655 21.6064 19.1858 22.1861C18.6062 22.7656 17.8194 23.0906 16.9997 23.0906H7.00044C6.18077 23.0906 5.39401 22.7656 4.81436 22.1861C4.23471 21.6064 3.90883 20.8198 3.90882 20V7.09126H3.00009C2.39771 7.09126 1.90937 6.60268 1.90918 6.00035C1.90918 5.39786 2.3976 4.90944 3.00009 4.90944H6.90883V3.99964C6.90892 3.18009 7.2349 2.39418 7.81437 1.81463C8.39402 1.23497 9.18068 0.909088 10.0004 0.909088H13.9997C14.8195 0.909088 15.6062 1.23497 16.1858 1.81463C16.7653 2.39418 17.0913 3.18009 17.0914 3.99964V4.90944Z" fill="white"/>
</svg>
