<svg width="25" height="25" viewBox="0 0 25 25" fill="none" xmlns="http://www.w3.org/2000/svg">
<path d="M12.5 18.5632C13.0523 18.5632 13.5 18.1155 13.5 17.5632C13.5 17.0109 13.0523 16.5632 12.5 16.5632C11.9477 16.5632 11.5 17.0109 11.5 17.5632C11.5 18.1155 11.9477 18.5632 12.5 18.5632Z" fill="white"/>
<path d="M11.4092 14.5636V10.5632C11.4092 9.96074 11.8976 9.47232 12.5001 9.47232C13.1026 9.47232 13.591 9.96074 13.591 10.5632V14.5636C13.5908 15.1659 13.1025 15.6545 12.5001 15.6545C11.8977 15.6545 11.4094 15.1659 11.4092 14.5636Z" fill="white"/>
<path d="M9.73552 4.65327C10.8747 2.37514 14.1255 2.37517 15.2646 4.65327L22.0285 18.181C23.056 20.2361 21.5616 22.6542 19.2639 22.6543H5.73623C3.43852 22.6543 1.94408 20.2361 2.97167 18.181L9.73552 4.65327ZM13.3129 5.62912C12.9779 4.95904 12.0223 4.95905 11.6872 5.62912L4.92338 19.1568C4.62116 19.7613 5.06041 20.4725 5.73623 20.4725H19.2639C19.9397 20.4724 20.379 19.7612 20.0768 19.1568L13.3129 5.62912Z" fill="white"/>
</svg>
