<svg width="180" height="219" viewBox="0 0 180 219" fill="none" xmlns="http://www.w3.org/2000/svg">
<g filter="url(#filter0_i_14_43)">
<rect y="29" width="180" height="190" rx="8" fill="#FF7400"/>
<g filter="url(#filter1_d_14_43)">
<rect x="18" y="49" width="144" height="150" fill="#EEEEEE"/>
</g>
</g>
<g filter="url(#filter2_i_14_43)">
<path d="M90 4C98.6003 4 105 10.3475 105 17.5C105 24.6525 98.6003 31 90 31C81.3997 31 75 24.6525 75 17.5C75 10.3475 81.3997 4 90 4Z" stroke="#CACACA" stroke-width="8"/>
<path d="M109 42H71V17H71.6357C73.7919 25.9098 81.1958 32.4766 90 32.4766C98.8042 32.4766 106.208 25.9098 108.364 17H109V42Z" fill="#CACACA"/>
</g>
<g filter="url(#filter3_i_14_43)">
<path d="M39 51C39 44.3726 44.3726 39 51 39H129C135.627 39 141 44.3726 141 51V60H39V51Z" fill="#9A4600"/>
</g>
<g filter="url(#filter4_i_14_43)">
<path d="M39 47C39 40.3726 44.3726 35 51 35H129C135.627 35 141 40.3726 141 47V49H39V47Z" fill="#CACACA"/>
</g>
<rect x="70" y="74" width="40" height="100" fill="#FF7400"/>
<rect x="140" y="104" width="40" height="100" transform="rotate(90 140 104)" fill="#FF7400"/>
<defs>
<filter id="filter0_i_14_43" x="0" y="29" width="180" height="190" filterUnits="userSpaceOnUse" color-interpolation-filters="sRGB">
<feFlood flood-opacity="0" result="BackgroundImageFix"/>
<feBlend mode="normal" in="SourceGraphic" in2="BackgroundImageFix" result="shape"/>
<feColorMatrix in="SourceAlpha" type="matrix" values="0 0 0 0 0 0 0 0 0 0 0 0 0 0 0 0 0 0 127 0" result="hardAlpha"/>
<feOffset/>
<feGaussianBlur stdDeviation="15"/>
<feComposite in2="hardAlpha" operator="arithmetic" k2="-1" k3="1"/>
<feColorMatrix type="matrix" values="0 0 0 0 0 0 0 0 0 0 0 0 0 0 0 0 0 0 0.25 0"/>
<feBlend mode="normal" in2="shape" result="effect1_innerShadow_14_43"/>
</filter>
<filter id="filter1_d_14_43" x="11" y="42" width="158" height="164" filterUnits="userSpaceOnUse" color-interpolation-filters="sRGB">
<feFlood flood-opacity="0" result="BackgroundImageFix"/>
<feColorMatrix in="SourceAlpha" type="matrix" values="0 0 0 0 0 0 0 0 0 0 0 0 0 0 0 0 0 0 127 0" result="hardAlpha"/>
<feMorphology radius="3" operator="dilate" in="SourceAlpha" result="effect1_dropShadow_14_43"/>
<feOffset/>
<feGaussianBlur stdDeviation="2"/>
<feComposite in2="hardAlpha" operator="out"/>
<feColorMatrix type="matrix" values="0 0 0 0 0 0 0 0 0 0 0 0 0 0 0 0 0 0 0.4 0"/>
<feBlend mode="normal" in2="BackgroundImageFix" result="effect1_dropShadow_14_43"/>
<feBlend mode="normal" in="SourceGraphic" in2="effect1_dropShadow_14_43" result="shape"/>
</filter>
<filter id="filter2_i_14_43" x="71" y="0" width="38" height="42" filterUnits="userSpaceOnUse" color-interpolation-filters="sRGB">
<feFlood flood-opacity="0" result="BackgroundImageFix"/>
<feBlend mode="normal" in="SourceGraphic" in2="BackgroundImageFix" result="shape"/>
<feColorMatrix in="SourceAlpha" type="matrix" values="0 0 0 0 0 0 0 0 0 0 0 0 0 0 0 0 0 0 127 0" result="hardAlpha"/>
<feOffset/>
<feGaussianBlur stdDeviation="2"/>
<feComposite in2="hardAlpha" operator="arithmetic" k2="-1" k3="1"/>
<feColorMatrix type="matrix" values="0 0 0 0 0 0 0 0 0 0 0 0 0 0 0 0 0 0 0.25 0"/>
<feBlend mode="normal" in2="shape" result="effect1_innerShadow_14_43"/>
</filter>
<filter id="filter3_i_14_43" x="39" y="39" width="102" height="25" filterUnits="userSpaceOnUse" color-interpolation-filters="sRGB">
<feFlood flood-opacity="0" result="BackgroundImageFix"/>
<feBlend mode="normal" in="SourceGraphic" in2="BackgroundImageFix" result="shape"/>
<feColorMatrix in="SourceAlpha" type="matrix" values="0 0 0 0 0 0 0 0 0 0 0 0 0 0 0 0 0 0 127 0" result="hardAlpha"/>
<feOffset dy="4"/>
<feGaussianBlur stdDeviation="2"/>
<feComposite in2="hardAlpha" operator="arithmetic" k2="-1" k3="1"/>
<feColorMatrix type="matrix" values="0 0 0 0 0 0 0 0 0 0 0 0 0 0 0 0 0 0 0.25 0"/>
<feBlend mode="normal" in2="shape" result="effect1_innerShadow_14_43"/>
</filter>
<filter id="filter4_i_14_43" x="39" y="35" width="102" height="18" filterUnits="userSpaceOnUse" color-interpolation-filters="sRGB">
<feFlood flood-opacity="0" result="BackgroundImageFix"/>
<feBlend mode="normal" in="SourceGraphic" in2="BackgroundImageFix" result="shape"/>
<feColorMatrix in="SourceAlpha" type="matrix" values="0 0 0 0 0 0 0 0 0 0 0 0 0 0 0 0 0 0 127 0" result="hardAlpha"/>
<feOffset dy="4"/>
<feGaussianBlur stdDeviation="2"/>
<feComposite in2="hardAlpha" operator="arithmetic" k2="-1" k3="1"/>
<feColorMatrix type="matrix" values="0 0 0 0 0 0 0 0 0 0 0 0 0 0 0 0 0 0 0.25 0"/>
<feBlend mode="normal" in2="shape" result="effect1_innerShadow_14_43"/>
</filter>
</defs>
</svg>
